<svg width="800" height="400" viewBox="-100 -100 400 200" style="margin: 0 -14px; display: block; background: white;" xmlns="http://www.w3.org/2000/svg" xmlns:xlink="http://www.w3.org/1999/xlink">

<circle cx="0" cy="0" r="25" fill="transparent" stroke="black" stroke-width="2px"/><text x="0" y="5" text-anchor="middle">0</text><path d="M 2.7554552980815448e-15 -45 A 45 45 0 0 0 -31.819805153394647 31.819805153394636 L -17.677669529663692 17.677669529663685 A 25 25 0 0 1 1.5308084989341915e-15 -25}" fill="none" stroke="black" stroke-width="2px"/><text x="-32" y="-5" text-anchor="middle">1</text><path d="M 31.81980515339464 31.819805153394636 A 45 45 0 0 0 2.7554552980815448e-15 -45 L 1.5308084989341915e-15 -25 A 25 25 0 0 1 17.67766952966369 17.677669529663685" fill="none" stroke="black" stroke-width="2px"/><text x="32" y="-5" text-anchor="middle">2</text><path d="M -31.819805153394636 31.81980515339464 A 45 45 0 0 0 31.81980515339464 31.819805153394636 L 17.67766952966369 17.677669529663685 A 25 25 0 0 1 -17.677669529663685 17.67766952966369" fill="none" stroke="black" stroke-width="2px"/><text x="0" y="40" text-anchor="middle">3</text><path d="M 53.033008588991066 53.03300858899106 A 75 75 0 0 0 53.033008588991066 -53.03300858899106 L 31.81980515339464 -31.819805153394636 A 45 45 0 0 1 31.81980515339464 31.819805153394636" fill="none" stroke="black" stroke-width="2px"/><text x="57" y="0" text-anchor="middle">4</text><path d="M 53.03300858899105 -53.03300858899107 A 75 75 0 0 0 -53.03300858899107 -53.03300858899106 L -31.819805153394647 -31.819805153394636 A 45 45 0 0 1 31.81980515339463 -31.819805153394647" fill="none" stroke="black" stroke-width="2px"/><text x="0" y="-55" text-anchor="middle">5</text><path d="M -53.03300858899107 -53.03300858899106 A 75 75 0 0 0 -53.03300858899106 53.033008588991066 L -31.819805153394636 31.81980515339464 A 45 45 0 0 1 -31.819805153394647 -31.819805153394636" fill="none" stroke="black" stroke-width="2px"/><text x="-57" y="0" text-anchor="middle">6</text><path d="M -53.03300858899106 53.033008588991066 A 75 75 0 0 0 53.033008588991066 53.03300858899106 L 31.81980515339464 31.819805153394636 A 45 45 0 0 1 -31.819805153394636 31.81980515339464" fill="none" stroke="black" stroke-width="2px"/><text x="0" y="63" text-anchor="middle">7</text>
<g transform=" translate(200 0) ">
<circle cx="0" cy="0" r="25" fill="limegreen" stroke="black" stroke-width="2px"/><path d="M 2.7554552980815448e-15 -45 A 45 45 0 0 0 -31.819805153394647 31.819805153394636 L -17.677669529663692 17.677669529663685 A 25 25 0 0 1 1.5308084989341915e-15 -25}" fill="yellow" stroke="black" stroke-width="2px"/><path d="M 31.81980515339464 31.819805153394636 A 45 45 0 0 0 2.7554552980815448e-15 -45 L 1.5308084989341915e-15 -25 A 25 25 0 0 1 17.67766952966369 17.677669529663685" fill="red" stroke="black" stroke-width="2px"/><path d="M -31.819805153394636 31.81980515339464 A 45 45 0 0 0 31.81980515339464 31.819805153394636 L 17.67766952966369 17.677669529663685 A 25 25 0 0 1 -17.677669529663685 17.67766952966369" fill="blue" stroke="black" stroke-width="2px"/><path d="M -53.03300858899106 53.033008588991066 A 75 75 0 0 0 53.033008588991066 53.03300858899106 L 31.81980515339464 31.819805153394636 A 45 45 0 0 1 -31.819805153394636 31.81980515339464" fill="limegreen" stroke="black" stroke-width="2px"/><path d="M 53.03300858899105 -53.03300858899107 A 75 75 0 0 0 -53.03300858899107 -53.03300858899106 L -31.819805153394647 -31.819805153394636 A 45 45 0 0 1 31.81980515339463 -31.819805153394647" fill="limegreen" stroke="black" stroke-width="2px"/><path d="M 53.033008588991066 53.03300858899106 A 75 75 0 0 0 53.033008588991066 -53.03300858899106 L 31.81980515339464 -31.819805153394636 A 45 45 0 0 1 31.81980515339464 31.819805153394636" fill="yellow" stroke="black" stroke-width="2px"/><path d="M -53.03300858899107 -53.03300858899106 A 75 75 0 0 0 -53.03300858899106 53.033008588991066 L -31.819805153394636 31.81980515339464 A 45 45 0 0 1 -31.819805153394647 -31.819805153394636" fill="red" stroke="black" stroke-width="2px"/><path d="M 53.03300858899105 -53.03300858899107 A 75 75 0 0 0 -53.03300858899107 -53.03300858899106 L -31.819805153394647 -31.819805153394636 A 45 45 0 0 1 31.81980515339463 -31.819805153394647" fill="limegreen" stroke="black" stroke-width="2px"/>
</g>

</svg>